<svg xmlns="http://www.w3.org/2000/svg" width="91.067" height="78.095" viewBox="0 0 91.067 78.095">
  <g id="Group_195" data-name="Group 195" transform="translate(784.419 -1014.123)">
    <g id="Group_190" data-name="Group 190">
      <g id="Group_178" data-name="Group 178">
        <path id="Path_698" data-name="Path 698" d="M-777.891,1069.42a.734.734,0,0,1-.368-.1.73.73,0,0,1-.343-.446l-5.011-18.727a.736.736,0,0,1,.52-.9l7.7-2.06a.737.737,0,0,1,.558.074.732.732,0,0,1,.343.447l5.011,18.726a.736.736,0,0,1-.52.9l-7.7,2.06A.725.725,0,0,1-777.891,1069.42ZM-782,1050.478l4.631,17.306,6.275-1.68-4.631-17.306Z" fill="#2c88ff" stroke="#2c88ff" stroke-linecap="round" stroke-linejoin="round" stroke-width="1.5"/>
      </g>
      <g id="Group_179" data-name="Group 179">
        <path id="Path_699" data-name="Path 699" d="M-731.413,1066.515h-.04l-39.259-.994a.734.734,0,0,1-.691-.545l-4.029-15.047a.735.735,0,0,1,.327-.818l33.5-20.485a.736.736,0,0,1,.775,0,.734.734,0,0,1,.34.7,54.461,54.461,0,0,0,1.9,18.8,54.557,54.557,0,0,0,7.668,17.1.735.735,0,0,1,.248.551A.737.737,0,0,1-731.413,1066.515Zm-38.712-2.452,37.266.944a57.509,57.509,0,0,1-7.155-16.5,57.559,57.559,0,0,1-2.058-17.872l-31.8,19.445Z" fill="#2c88ff" stroke="#2c88ff" stroke-linecap="round" stroke-linejoin="round" stroke-width="1.5"/>
      </g>
      <g id="Group_180" data-name="Group 180">
        <path id="Path_700" data-name="Path 700" d="M-720.366,1074.162h0c-7.11,0-15.438-11.065-19.371-25.738-4.374-16.3-1.934-30.637,5.553-32.647a6.813,6.813,0,0,1,1.752-.227c7.12,0,15.448,11.063,19.369,25.735,4.374,16.3,1.939,30.637-5.542,32.647A6.783,6.783,0,0,1-720.366,1074.162Zm-12.066-57.141a5.272,5.272,0,0,0-1.37.178c-6.467,1.735-8.535,15.86-4.514,30.843,3.7,13.822,11.59,24.649,17.95,24.649h0a5.334,5.334,0,0,0,1.379-.18c6.461-1.737,8.524-15.862,4.5-30.845C-718.178,1027.846-726.062,1017.021-732.432,1017.021Z" fill="#2c88ff" stroke="#2c88ff" stroke-linecap="round" stroke-linejoin="round" stroke-width="1.5"/>
      </g>
      <g id="Group_181" data-name="Group 181">
        <path id="Path_701" data-name="Path 701" d="M-715.36,1071.643a.725.725,0,0,1-.254-.046c-6.5-2.4-13.146-12.522-16.544-25.2s-2.7-24.773,1.732-30.105a.74.74,0,0,1,.821-.222c6.494,2.393,13.142,12.524,16.542,25.213s2.705,24.781-1.732,30.094A.737.737,0,0,1-715.36,1071.643Zm-14.261-53.991c-3.779,5.136-4.254,16.654-1.115,28.367s9.306,21.447,15.139,24c3.782-5.116,4.256-16.629,1.113-28.354S-723.792,1020.2-729.621,1017.652Z" fill="#2c88ff" stroke="#2c88ff" stroke-linecap="round" stroke-linejoin="round" stroke-width="1.5"/>
      </g>
      <g id="Group_182" data-name="Group 182">
        <path id="Path_702" data-name="Path 702" d="M-730.463,1050.288a.734.734,0,0,1-.7-.514c-.4-1.244-.721-2.348-.994-3.376-.3-1.095-.568-2.218-.82-3.431a.737.737,0,0,1,.415-.818,16.833,16.833,0,0,1,2.712-.969,16.787,16.787,0,0,1,4.283-.6c2.956,0,4.982.972,5.421,2.6.339,1.252-.321,2.638-1.856,3.9a15.078,15.078,0,0,1-5.548,2.683,18.106,18.106,0,0,1-2.845.517Zm-.95-7.035c.21.962.433,1.87.676,2.762.225.848.486,1.747.793,2.737a17.567,17.567,0,0,0,2.017-.407,13.575,13.575,0,0,0,4.987-2.4c1.048-.864,1.549-1.734,1.372-2.385-.243-.9-1.851-1.513-4-1.513a15.279,15.279,0,0,0-3.906.55A15.212,15.212,0,0,0-731.413,1043.253Z" fill="#2c88ff" stroke="#2c88ff" stroke-linecap="round" stroke-linejoin="round" stroke-width="1.5"/>
      </g>
      <g id="Group_183" data-name="Group 183">
        <path id="Path_703" data-name="Path 703" d="M-751.876,1091.468a.736.736,0,0,1-.644-.381l-14.245-25.832a.739.739,0,0,1,.021-.745.767.767,0,0,1,.66-.345l8.738.439a.737.737,0,0,1,.607.377l12.475,22.418a.741.741,0,0,1,.054.6.736.736,0,0,1-.408.437l-6.969,2.976A.734.734,0,0,1-751.876,1091.468Zm-12.962-25.767,13.285,24.094,5.606-2.394-11.879-21.348Z" fill="#2c88ff" stroke="#2c88ff" stroke-linecap="round" stroke-linejoin="round" stroke-width="1.5"/>
      </g>
      <g id="Group_184" data-name="Group 184">
        <path id="Path_704" data-name="Path 704" d="M-766.434,1056.321a.738.738,0,0,1-.711-.546.735.735,0,0,1,.521-.9l23.045-6.182a.741.741,0,0,1,.9.521.736.736,0,0,1-.52.9l-23.045,6.181A.732.732,0,0,1-766.434,1056.321Z" fill="#2c88ff" stroke="#2c88ff" stroke-linecap="round" stroke-linejoin="round" stroke-width="1.5"/>
      </g>
      <g id="Group_185" data-name="Group 185">
        <path id="Path_705" data-name="Path 705" d="M-704.3,1037.94a.739.739,0,0,1-.711-.546.737.737,0,0,1,.521-.9l7.615-2.037a.737.737,0,0,1,.9.521.736.736,0,0,1-.52.9l-7.616,2.037A.781.781,0,0,1-704.3,1037.94Z" fill="#2c88ff" stroke="#2c88ff" stroke-linecap="round" stroke-linejoin="round" stroke-width="1.5"/>
      </g>
      <g id="Group_186" data-name="Group 186">
        <path id="Path_706" data-name="Path 706" d="M-694.838,1047.291h-7.872a.736.736,0,0,1-.736-.736.735.735,0,0,1,.736-.736h7.872a.735.735,0,0,1,.736.736A.736.736,0,0,1-694.838,1047.291Z" fill="#2c88ff" stroke="#2c88ff" stroke-linecap="round" stroke-linejoin="round" stroke-width="1.5"/>
      </g>
      <g id="Group_187" data-name="Group 187">
        <path id="Path_707" data-name="Path 707" d="M-696.007,1058.772a.777.777,0,0,1-.191-.025l-7.6-2.037a.736.736,0,0,1-.52-.9.739.739,0,0,1,.9-.52l7.6,2.037a.735.735,0,0,1,.52.9A.735.735,0,0,1-696.007,1058.772Z" fill="#2c88ff" stroke="#2c88ff" stroke-linecap="round" stroke-linejoin="round" stroke-width="1.5"/>
      </g>
      <g id="Group_188" data-name="Group 188">
        <path id="Path_708" data-name="Path 708" d="M-714.259,1022a.734.734,0,0,1-.52-.215.735.735,0,0,1,0-1.041l5.566-5.567a.737.737,0,0,1,1.041,0,.738.738,0,0,1,0,1.042l-5.566,5.566A.739.739,0,0,1-714.259,1022Z" fill="#2c88ff" stroke="#2c88ff" stroke-linecap="round" stroke-linejoin="round" stroke-width="1.5"/>
      </g>
      <g id="Group_189" data-name="Group 189">
        <path id="Path_709" data-name="Path 709" d="M-708.228,1029.318a.737.737,0,0,1-.639-.369.735.735,0,0,1,.271-1.005l6.827-3.935a.737.737,0,0,1,1,.271.736.736,0,0,1-.27,1.005l-6.828,3.935A.735.735,0,0,1-708.228,1029.318Z" fill="#2c88ff" stroke="#2c88ff" stroke-linecap="round" stroke-linejoin="round" stroke-width="1.5"/>
      </g>
    </g>
  </g>
</svg>
