<svg xmlns="http://www.w3.org/2000/svg" width="90.197" height="99.165" viewBox="0 0 90.197 99.165">
  <g id="Group_198" data-name="Group 198" transform="translate(0.375 0.375)">
    <g id="Group_156" data-name="Group 156" transform="translate(0 0)">
      <g id="Group_155" data-name="Group 155">
        <g id="Group_149" data-name="Group 149" transform="translate(0 11.103)">
          <path id="Path_672" data-name="Path 672" d="M-894.205,1082.8H-972.1a5.785,5.785,0,0,1-5.776-5.779v-56.089a5.783,5.783,0,0,1,5.776-5.776h20.8a.915.915,0,0,1,.915.915v31.105h36.2V1016.07a.915.915,0,0,1,.916-.915h19.056a5.784,5.784,0,0,1,5.777,5.776v56.089A5.786,5.786,0,0,1-894.205,1082.8Zm-77.894-65.814a3.951,3.951,0,0,0-3.946,3.946v56.089a3.952,3.952,0,0,0,3.946,3.948h77.894a3.953,3.953,0,0,0,3.947-3.948v-56.089a3.951,3.951,0,0,0-3.947-3.946h-18.141v31.105a.914.914,0,0,1-.915.915H-951.3a.914.914,0,0,1-.915-.915v-31.105Z" transform="translate(977.875 -1015.155)" fill="#2c88ff" stroke="#2c88ff" stroke-miterlimit="10" stroke-width="0.75"/>
        </g>
        <g id="Group_150" data-name="Group 150" transform="translate(29.677 76.916)">
          <path id="Path_673" data-name="Path 673" d="M-920.322,1095.675h-28.287a.917.917,0,0,1-.724-.357.914.914,0,0,1-.16-.79l4.158-15.817a.916.916,0,0,1,.885-.684h19.943a.917.917,0,0,1,.886.684l4.1,15.607a.934.934,0,0,1,.113.442A.915.915,0,0,1-920.322,1095.675Zm-27.1-1.83h25.888l-3.677-13.987h-18.533Z" transform="translate(949.524 -1078.027)" fill="#2c88ff" stroke="#2c88ff" stroke-miterlimit="10" stroke-width="0.75"/>
        </g>
        <g id="Group_151" data-name="Group 151" transform="translate(17.18 92.734)">
          <path id="Path_674" data-name="Path 674" d="M-907.291,1098.819h-53.257a.914.914,0,0,1-.915-.915v-3.851a.914.914,0,0,1,.915-.915h53.257a.914.914,0,0,1,.915.915v3.851A.914.914,0,0,1-907.291,1098.819Zm-52.341-1.83h51.425v-2.021h-51.425Z" transform="translate(961.463 -1093.138)" fill="#2c88ff" stroke="#2c88ff" stroke-miterlimit="10" stroke-width="0.75"/>
        </g>
        <g id="Group_152" data-name="Group 152" transform="translate(5.87 16.689)">
          <path id="Path_675" data-name="Path 675" d="M-895.644,1020.491h-17.12c.005.068.022.137.022.205,0,.526.048,1.05.1,1.576h16.1v42.773h-73.952v-42.773h18.344a9.054,9.054,0,0,1,.022-1.781h-19.256a.889.889,0,0,0-.89.89v44.554a.89.89,0,0,0,.89.891h75.733a.891.891,0,0,0,.891-.891v-44.554A.89.89,0,0,0-895.644,1020.491Z" transform="translate(972.267 -1020.491)" fill="#2c88ff" stroke="#2c88ff" stroke-miterlimit="10" stroke-width="0.75"/>
        </g>
        <g id="Group_153" data-name="Group 153" transform="translate(41.974 70.018)">
          <path id="Path_676" data-name="Path 676" d="M-935.022,1076.927a2.753,2.753,0,0,1-2.755-2.744,2.754,2.754,0,0,1,2.755-2.747,2.748,2.748,0,0,1,2.744,2.747A2.747,2.747,0,0,1-935.022,1076.927Zm0-3.661a.922.922,0,0,0-.925.917.921.921,0,0,0,.925.914.915.915,0,0,0,.914-.914A.917.917,0,0,0-935.022,1073.267Z" transform="translate(937.777 -1071.437)" fill="#2c88ff" stroke="#2c88ff" stroke-miterlimit="10" stroke-width="0.25"/>
        </g>
        <g id="Group_154" data-name="Group 154" transform="translate(25.665)">
          <path id="Path_677" data-name="Path 677" d="M-914.408,1049.5h-38.035a.914.914,0,0,1-.915-.915v-43.122a.915.915,0,0,1,.915-.916h38.035a.915.915,0,0,1,.915.916v43.122A.914.914,0,0,1-914.408,1049.5Zm-37.12-1.83h36.2v-41.292h-36.2Z" transform="translate(953.357 -1004.548)" fill="#2c88ff" stroke="#2c88ff" stroke-miterlimit="10" stroke-width="0.75"/>
        </g>
      </g>
    </g>
    <path id="Path_678" data-name="Path 678" d="M-925.2,1022.09v-3.2a8.591,8.591,0,0,0-8.582-8.581,8.591,8.591,0,0,0-8.58,8.581v3.2a4.253,4.253,0,0,0-2.89,4.023v4.335a11.484,11.484,0,0,0,11.472,11.472,11.485,11.485,0,0,0,11.472-11.472v-4.335a4.255,4.255,0,0,0-2.891-4.023Zm-14.452-3.2a5.878,5.878,0,0,1,5.87-5.871,5.878,5.878,0,0,1,5.871,5.871v2.98h-11.742Zm14.633,11.561a8.773,8.773,0,0,1-8.763,8.762,8.772,8.772,0,0,1-8.76-8.762v-4.335a1.537,1.537,0,0,1,1.535-1.536h14.453a1.538,1.538,0,0,1,1.536,1.536Zm0,0" transform="translate(979.401 -1004.279)" fill="#2c88ff"/>
    <path id="Path_679" data-name="Path 679" d="M-934.168,1026.873a2.8,2.8,0,0,0-2.8,2.8,2.8,2.8,0,0,0,1.446,2.449v.938a1.354,1.354,0,0,0,1.354,1.355,1.355,1.355,0,0,0,1.356-1.355v-.938a2.8,2.8,0,0,0,1.445-2.449,2.8,2.8,0,0,0-2.8-2.8Zm0,0" transform="translate(979.789 -1003.504)" fill="#2c88ff"/>
  </g>
</svg>
