<svg xmlns="http://www.w3.org/2000/svg" width="75.508" height="89.049" viewBox="0 0 75.508 89.049">
  <g id="Group_196" data-name="Group 196" transform="translate(877.837 -1012.155)">
    <g id="Group_176" data-name="Group 176">
      <g id="Group_158" data-name="Group 158">
        <path id="Path_680" data-name="Path 680" d="M-865.292,1026.627a7.02,7.02,0,0,1-7.017-7.007,7.024,7.024,0,0,1,7.017-7.015,7.024,7.024,0,0,1,7.017,7.015A7.02,7.02,0,0,1-865.292,1026.627Zm0-12.572a5.572,5.572,0,0,0-5.567,5.565,5.568,5.568,0,0,0,5.567,5.558,5.569,5.569,0,0,0,5.568-5.558A5.572,5.572,0,0,0-865.292,1014.055Z" fill="#2c88ff" stroke="#2c88ff" stroke-miterlimit="10" stroke-width="0.9"/>
      </g>
      <g id="Group_159" data-name="Group 159">
        <path id="Path_681" data-name="Path 681" d="M-855.675,1048.258a2.821,2.821,0,0,1-2.822-2.813v-2.531a.725.725,0,0,1,.725-.725.726.726,0,0,1,.725.725v2.531a1.385,1.385,0,0,0,1.372,1.363,1.458,1.458,0,0,0,1.374-1.422l0-9.839a5.983,5.983,0,0,0-5.981-5.973h-9.672a5.983,5.983,0,0,0-5.98,5.973v9.907a1.363,1.363,0,0,0,1.371,1.354,1.386,1.386,0,0,0,1.372-1.363v-2.531a.725.725,0,0,1,.724-.725.725.725,0,0,1,.725.725v2.531a2.82,2.82,0,0,1-2.821,2.813,2.816,2.816,0,0,1-2.821-2.8v-9.907a7.436,7.436,0,0,1,7.43-7.423h9.672a7.435,7.435,0,0,1,7.43,7.423v9.907A2.89,2.89,0,0,1-855.675,1048.258Z" fill="#2c88ff" stroke="#2c88ff" stroke-miterlimit="10" stroke-width="0.9"/>
      </g>
      <g id="Group_160" data-name="Group 160">
        <path id="Path_682" data-name="Path 682" d="M-857.772,1052.207h-14.7a.724.724,0,0,1-.724-.725V1040.23a.724.724,0,0,1,.724-.725.724.724,0,0,1,.725.725v10.527H-858.5V1040.23a.724.724,0,0,1,.725-.725.725.725,0,0,1,.725.725v11.252A.725.725,0,0,1-857.772,1052.207Z" fill="#2c88ff" stroke="#2c88ff" stroke-miterlimit="10" stroke-width="0.9"/>
      </g>
      <g id="Group_161" data-name="Group 161">
        <path id="Path_683" data-name="Path 683" d="M-824.213,1075.174a7.019,7.019,0,0,1-7.014-7.006,7.023,7.023,0,0,1,7.014-7.016,7.025,7.025,0,0,1,7.018,7.016A7.02,7.02,0,0,1-824.213,1075.174Zm0-12.572a5.572,5.572,0,0,0-5.565,5.566,5.568,5.568,0,0,0,5.565,5.557,5.568,5.568,0,0,0,5.568-5.557A5.572,5.572,0,0,0-824.213,1062.6Z" fill="#2c88ff" stroke="#2c88ff" stroke-miterlimit="10" stroke-width="0.9"/>
      </g>
      <g id="Group_162" data-name="Group 162">
        <path id="Path_684" data-name="Path 684" d="M-828.443,1068.548a7,7,0,0,1-2.26-.373.724.724,0,0,1-.451-.919.724.724,0,0,1,.919-.452,5.536,5.536,0,0,0,1.792.3,5.491,5.491,0,0,0,4.455-2.229.724.724,0,0,1,.489-.286.72.72,0,0,1,.545.153,5.715,5.715,0,0,0,4.68,1.113.727.727,0,0,1,.856.562.725.725,0,0,1-.562.857,7.171,7.171,0,0,1-5.3-.984A7.036,7.036,0,0,1-828.443,1068.548Z" fill="#2c88ff" stroke="#2c88ff" stroke-miterlimit="10" stroke-width="0.9"/>
      </g>
      <g id="Group_163" data-name="Group 163">
        <path id="Path_685" data-name="Path 685" d="M-814.6,1096.8a2.821,2.821,0,0,1-2.813-2.821v-2.522a.726.726,0,0,1,.725-.725.725.725,0,0,1,.725.725v2.522a1.368,1.368,0,0,0,1.363,1.371,1.45,1.45,0,0,0,1.378-1.423l0-9.835a5.981,5.981,0,0,0-5.975-5.974h-9.679a5.981,5.981,0,0,0-5.974,5.974V1094a1.358,1.358,0,0,0,1.362,1.353,1.372,1.372,0,0,0,1.372-1.371v-2.522a.726.726,0,0,1,.725-.725.725.725,0,0,1,.725.725v2.522a2.825,2.825,0,0,1-2.822,2.821,2.811,2.811,0,0,1-2.812-2.8v-9.905a7.433,7.433,0,0,1,7.424-7.424h9.679a7.433,7.433,0,0,1,7.424,7.424V1094A2.9,2.9,0,0,1-814.6,1096.8Z" fill="#2c88ff" stroke="#2c88ff" stroke-miterlimit="10" stroke-width="0.9"/>
      </g>
      <g id="Group_164" data-name="Group 164">
        <path id="Path_686" data-name="Path 686" d="M-816.693,1100.754H-831.4a.725.725,0,0,1-.725-.725v-11.254a.725.725,0,0,1,.725-.725.724.724,0,0,1,.725.725V1099.3h13.256v-10.529a.725.725,0,0,1,.725-.725.724.724,0,0,1,.725.725v11.254A.724.724,0,0,1-816.693,1100.754Z" fill="#2c88ff" stroke="#2c88ff" stroke-miterlimit="10" stroke-width="0.9"/>
      </g>
      <g id="Group_165" data-name="Group 165">
        <path id="Path_687" data-name="Path 687" d="M-838.873,1058.905a.718.718,0,0,1-.353-.092.722.722,0,0,1-.364-.737l1.463-9.991h-6.458a.725.725,0,0,1-.725-.725v-26.491a.725.725,0,0,1,.725-.725H-803.5a.724.724,0,0,1,.725.725v26.491a.724.724,0,0,1-.725.725h-22.225l-12.679,10.651A.723.723,0,0,1-838.873,1058.905Zm-4.987-12.269h6.571a.723.723,0,0,1,.548.251.724.724,0,0,1,.169.578l-1.309,8.935,11.423-9.595a.727.727,0,0,1,.466-.169h21.764v-25.043H-843.86Z" fill="#2c88ff" stroke="#2c88ff" stroke-miterlimit="10" stroke-width="0.9"/>
      </g>
      <g id="Group_166" data-name="Group 166">
        <path id="Path_688" data-name="Path 688" d="M-869.434,1020a6.943,6.943,0,0,1-2.257-.374.725.725,0,0,1-.451-.921.728.728,0,0,1,.921-.45,5.478,5.478,0,0,0,1.787.3,5.517,5.517,0,0,0,4.456-2.231.73.73,0,0,1,.488-.284.709.709,0,0,1,.544.153,5.561,5.561,0,0,0,3.5,1.23,5.55,5.55,0,0,0,1.165-.117.724.724,0,0,1,.861.554.723.723,0,0,1-.554.86,6.845,6.845,0,0,1-1.472.153,7.085,7.085,0,0,1-3.823-1.133A6.943,6.943,0,0,1-869.434,1020Z" fill="#2c88ff" stroke="#2c88ff" stroke-miterlimit="10" stroke-width="0.9"/>
      </g>
      <g id="Group_167" data-name="Group 167">
        <path id="Path_689" data-name="Path 689" d="M-842.958,1091.362h-23.084a.725.725,0,0,1-.725-.724v-36.172a.725.725,0,0,1,.725-.725.725.725,0,0,1,.725.725v35.447h22.359a.725.725,0,0,1,.725.725A.725.725,0,0,1-842.958,1091.362Z" fill="#2c88ff" stroke="#2c88ff" stroke-miterlimit="10" stroke-width="0.9"/>
      </g>
      <g id="Group_168" data-name="Group 168">
        <path id="Path_690" data-name="Path 690" d="M-810.854,1028.854h-18.112a.725.725,0,0,1-.725-.725.725.725,0,0,1,.725-.724h18.112a.725.725,0,0,1,.725.724A.725.725,0,0,1-810.854,1028.854Z" fill="#2c88ff" stroke="#2c88ff" stroke-miterlimit="10" stroke-width="0.9"/>
      </g>
      <g id="Group_169" data-name="Group 169">
        <path id="Path_691" data-name="Path 691" d="M-832.672,1028.854h-4.555a.724.724,0,0,1-.725-.725.724.724,0,0,1,.725-.724h4.555a.725.725,0,0,1,.725.724A.725.725,0,0,1-832.672,1028.854Z" fill="#2c88ff" stroke="#2c88ff" stroke-miterlimit="10" stroke-width="0.9"/>
      </g>
      <g id="Group_170" data-name="Group 170">
        <path id="Path_692" data-name="Path 692" d="M-819.124,1033.011h-18.1a.725.725,0,0,1-.725-.725.724.724,0,0,1,.725-.725h18.1a.724.724,0,0,1,.725.725A.725.725,0,0,1-819.124,1033.011Z" fill="#2c88ff" stroke="#2c88ff" stroke-miterlimit="10" stroke-width="0.9"/>
      </g>
      <g id="Group_171" data-name="Group 171">
        <path id="Path_693" data-name="Path 693" d="M-810.854,1033.011h-4.555a.725.725,0,0,1-.725-.725.725.725,0,0,1,.725-.725h4.555a.725.725,0,0,1,.725.725A.725.725,0,0,1-810.854,1033.011Z" fill="#2c88ff" stroke="#2c88ff" stroke-miterlimit="10" stroke-width="0.9"/>
      </g>
      <g id="Group_172" data-name="Group 172">
        <path id="Path_694" data-name="Path 694" d="M-810.854,1037.16h-18.112a.726.726,0,0,1-.725-.725.726.726,0,0,1,.725-.725h18.112a.726.726,0,0,1,.725.725A.726.726,0,0,1-810.854,1037.16Z" fill="#2c88ff" stroke="#2c88ff" stroke-miterlimit="10" stroke-width="0.9"/>
      </g>
      <g id="Group_173" data-name="Group 173">
        <path id="Path_695" data-name="Path 695" d="M-832.672,1037.16h-4.555a.725.725,0,0,1-.725-.725.725.725,0,0,1,.725-.725h4.555a.726.726,0,0,1,.725.725A.726.726,0,0,1-832.672,1037.16Z" fill="#2c88ff" stroke="#2c88ff" stroke-miterlimit="10" stroke-width="0.9"/>
      </g>
      <g id="Group_174" data-name="Group 174">
        <path id="Path_696" data-name="Path 696" d="M-819.124,1041.309h-18.1a.725.725,0,0,1-.725-.725.725.725,0,0,1,.725-.725h18.1a.725.725,0,0,1,.725.725A.725.725,0,0,1-819.124,1041.309Z" fill="#2c88ff" stroke="#2c88ff" stroke-miterlimit="10" stroke-width="0.9"/>
      </g>
      <g id="Group_175" data-name="Group 175">
        <path id="Path_697" data-name="Path 697" d="M-810.854,1041.309h-4.555a.725.725,0,0,1-.725-.725.725.725,0,0,1,.725-.725h4.555a.725.725,0,0,1,.725.725A.725.725,0,0,1-810.854,1041.309Z" fill="#2c88ff" stroke="#2c88ff" stroke-miterlimit="10" stroke-width="0.9"/>
      </g>
    </g>
  </g>
</svg>
