<svg xmlns="http://www.w3.org/2000/svg" width="137.412" height="82.951" viewBox="0 0 137.412 82.951">
  <g id="Group_230" data-name="Group 230" transform="translate(-305 -3630.549)">
    <g id="Group_144" data-name="Group 144" transform="translate(1408.443 2617.827)">
      <path id="Path_648" data-name="Path 648" d="M-991.133,1027.722h-87.206a10.115,10.115,0,0,0-10.1,10.1v20.464a10.113,10.113,0,0,0,10.1,10.1l50.551.068a1.919,1.919,0,0,0,1.919-1.918,1.92,1.92,0,0,0-1.919-1.919l-50.551-.068a6.274,6.274,0,0,1-6.267-6.267v-20.463a6.274,6.274,0,0,1,6.267-6.267h87.2a6.273,6.273,0,0,1,6.267,6.267v10.232a1.92,1.92,0,0,0,1.919,1.919,1.918,1.918,0,0,0,1.918-1.919v-10.232a10.116,10.116,0,0,0-10.1-10.1Zm0,0" transform="translate(0)" fill="#2c88ff"/>
      <path id="Path_649" data-name="Path 649" d="M-997.179,1050.4v-4.538a12.165,12.165,0,0,0-12.152-12.15,12.164,12.164,0,0,0-12.15,12.15v4.538a6.018,6.018,0,0,0-4.092,5.7v6.138a16.262,16.262,0,0,0,16.243,16.244,16.263,16.263,0,0,0,16.244-16.244v-6.138a6.023,6.023,0,0,0-4.093-5.7Zm-20.464-4.536a8.323,8.323,0,0,1,8.312-8.314,8.322,8.322,0,0,1,8.313,8.314v4.22h-16.626Zm20.72,16.37a12.422,12.422,0,0,1-12.408,12.408,12.421,12.421,0,0,1-12.405-12.408v-6.138a2.178,2.178,0,0,1,2.174-2.175H-999.1a2.178,2.178,0,0,1,2.174,2.175Zm0,0" transform="translate(4.891 2.198)" fill="#2c88ff"/>
      <path id="Path_650" data-name="Path 650" d="M-1012.628,1051.672a3.969,3.969,0,0,0-3.965,3.965,3.968,3.968,0,0,0,2.047,3.468v1.329a1.918,1.918,0,0,0,1.918,1.918,1.919,1.919,0,0,0,1.919-1.918V1059.1a3.964,3.964,0,0,0,2.045-3.468,3.969,3.969,0,0,0-3.965-3.965Zm0,0" transform="translate(8.188 8.793)" fill="#2c88ff"/>
      <path id="Path_651" data-name="Path 651" d="M-1042.144,1047.742l-4.211-2.432,4.211-2.431a1.919,1.919,0,0,0,.7-2.621,1.918,1.918,0,0,0-2.621-.7l-4.212,2.431v-4.863a1.918,1.918,0,0,0-1.918-1.918,1.918,1.918,0,0,0-1.918,1.918v4.863l-4.212-2.431a1.916,1.916,0,0,0-2.62.7,1.917,1.917,0,0,0,.7,2.621l4.212,2.431-4.212,2.432a1.916,1.916,0,0,0-.7,2.62,1.915,1.915,0,0,0,1.662.959,1.906,1.906,0,0,0,.957-.257l4.212-2.431v4.863a1.918,1.918,0,0,0,1.918,1.918,1.918,1.918,0,0,0,1.918-1.918v-4.863l4.212,2.431a1.9,1.9,0,0,0,.957.257,1.92,1.92,0,0,0,1.664-.959,1.919,1.919,0,0,0-.7-2.62Zm0,0" transform="translate(10.735 2.748)" fill="#2c88ff"/>
      <path id="Path_652" data-name="Path 652" d="M-1060.107,1047.742l-4.211-2.432,4.211-2.431a1.918,1.918,0,0,0,.7-2.621,1.918,1.918,0,0,0-2.621-.7l-4.212,2.431v-4.863a1.918,1.918,0,0,0-1.918-1.918,1.918,1.918,0,0,0-1.918,1.918v4.863l-4.211-2.431a1.918,1.918,0,0,0-2.621.7,1.919,1.919,0,0,0,.7,2.621l4.212,2.431-4.212,2.432a1.919,1.919,0,0,0-.7,2.62,1.915,1.915,0,0,0,1.662.959,1.909,1.909,0,0,0,.958-.257l4.211-2.431v4.863a1.918,1.918,0,0,0,1.918,1.918,1.918,1.918,0,0,0,1.918-1.918v-4.863l4.212,2.431a1.9,1.9,0,0,0,.957.257,1.917,1.917,0,0,0,1.664-.959,1.918,1.918,0,0,0-.7-2.62Zm0,0" transform="translate(4.141 2.748)" fill="#2c88ff"/>
    </g>
    <g id="Group_194" data-name="Group 194" transform="translate(1408.442 2617.827)">
      <path id="Path_648-2" data-name="Path 648" d="M-991.133,1027.722h-87.206a10.115,10.115,0,0,0-10.1,10.1v20.464a10.113,10.113,0,0,0,10.1,10.1l50.551.068a1.919,1.919,0,0,0,1.919-1.918,1.92,1.92,0,0,0-1.919-1.919l-50.551-.068a6.274,6.274,0,0,1-6.267-6.267v-20.463a6.274,6.274,0,0,1,6.267-6.267h87.2a6.273,6.273,0,0,1,6.267,6.267v10.232a1.92,1.92,0,0,0,1.919,1.919,1.918,1.918,0,0,0,1.918-1.919v-10.232a10.116,10.116,0,0,0-10.1-10.1Zm0,0" transform="translate(0)" fill="#2c88ff"/>
      <path id="Path_649-2" data-name="Path 649" d="M-997.179,1050.4v-4.538a12.165,12.165,0,0,0-12.152-12.15,12.164,12.164,0,0,0-12.15,12.15v4.538a6.018,6.018,0,0,0-4.092,5.7v6.138a16.262,16.262,0,0,0,16.243,16.244,16.263,16.263,0,0,0,16.244-16.244v-6.138a6.023,6.023,0,0,0-4.093-5.7Zm-20.464-4.536a8.323,8.323,0,0,1,8.312-8.314,8.322,8.322,0,0,1,8.313,8.314v4.22h-16.626Zm20.72,16.37a12.422,12.422,0,0,1-12.408,12.408,12.421,12.421,0,0,1-12.405-12.408v-6.138a2.178,2.178,0,0,1,2.174-2.175H-999.1a2.178,2.178,0,0,1,2.174,2.175Zm0,0" transform="translate(4.891 2.198)" fill="#2c88ff"/>
      <path id="Path_650-2" data-name="Path 650" d="M-1012.628,1051.672a3.969,3.969,0,0,0-3.965,3.965,3.968,3.968,0,0,0,2.047,3.468v1.329a1.918,1.918,0,0,0,1.918,1.918,1.919,1.919,0,0,0,1.919-1.918V1059.1a3.964,3.964,0,0,0,2.045-3.468,3.969,3.969,0,0,0-3.965-3.965Zm0,0" transform="translate(8.188 8.793)" fill="#2c88ff"/>
      <path id="Path_651-2" data-name="Path 651" d="M-1042.144,1047.742l-4.211-2.432,4.211-2.431a1.919,1.919,0,0,0,.7-2.621,1.918,1.918,0,0,0-2.621-.7l-4.212,2.431v-4.863a1.918,1.918,0,0,0-1.918-1.918,1.918,1.918,0,0,0-1.918,1.918v4.863l-4.212-2.431a1.916,1.916,0,0,0-2.62.7,1.917,1.917,0,0,0,.7,2.621l4.212,2.431-4.212,2.432a1.916,1.916,0,0,0-.7,2.62,1.915,1.915,0,0,0,1.662.959,1.906,1.906,0,0,0,.957-.257l4.212-2.431v4.863a1.918,1.918,0,0,0,1.918,1.918,1.918,1.918,0,0,0,1.918-1.918v-4.863l4.212,2.431a1.9,1.9,0,0,0,.957.257,1.92,1.92,0,0,0,1.664-.959,1.919,1.919,0,0,0-.7-2.62Zm0,0" transform="translate(10.735 2.748)" fill="#2c88ff"/>
      <path id="Path_652-2" data-name="Path 652" d="M-1060.107,1047.742l-4.211-2.432,4.211-2.431a1.918,1.918,0,0,0,.7-2.621,1.918,1.918,0,0,0-2.621-.7l-4.212,2.431v-4.863a1.918,1.918,0,0,0-1.918-1.918,1.918,1.918,0,0,0-1.918,1.918v4.863l-4.211-2.431a1.918,1.918,0,0,0-2.621.7,1.919,1.919,0,0,0,.7,2.621l4.212,2.431-4.212,2.432a1.919,1.919,0,0,0-.7,2.62,1.915,1.915,0,0,0,1.662.959,1.909,1.909,0,0,0,.958-.257l4.211-2.431v4.863a1.918,1.918,0,0,0,1.918,1.918,1.918,1.918,0,0,0,1.918-1.918v-4.863l4.212,2.431a1.9,1.9,0,0,0,.957.257,1.917,1.917,0,0,0,1.664-.959,1.918,1.918,0,0,0-.7-2.62Zm0,0" transform="translate(4.141 2.748)" fill="#2c88ff"/>
    </g>
  </g>
</svg>
