<svg xmlns="http://www.w3.org/2000/svg" width="106.652" height="123.676" viewBox="0 0 106.652 123.676">
  <g id="Group_228" data-name="Group 228" transform="translate(-374.515 -2042.356)">
    <path id="Path_390" data-name="Path 390" d="M442.3,753.711H379.1a.786.786,0,0,1-.786-.785v-28.69a.8.8,0,0,1,.257-.582c1.479-1.342,2.772-2.49,3.9-3.494,7.572-6.726,7.572-6.726,7.4-16.443-.029-1.574-.06-3.392-.068-5.523-4.742.544-8.463-.247-11.187-2.35a.787.787,0,0,1-.306-.622V674.037a.786.786,0,0,1,.786-.785h15.331a.786.786,0,0,1,.71,1.121,3.478,3.478,0,0,0-.325,1.479v3.5h31.649v-3.5a3.468,3.468,0,0,0-.333-1.479.786.786,0,0,1,.71-1.121H442.3a.785.785,0,0,1,.785.785v78.889A.785.785,0,0,1,442.3,753.711Zm-62.418-1.571h61.632V674.823h-13.59a5,5,0,0,1,.107,1.029v4.284a.786.786,0,0,1-.785.786h-33.22a.786.786,0,0,1-.785-.786v-4.284a5.06,5.06,0,0,1,.105-1.029H379.881v20c2.542,1.805,6.021,2.362,10.592,1.7a.808.808,0,0,1,.627.185.781.781,0,0,1,.272.593c0,2.508.036,4.606.069,6.388.181,10.341.106,10.505-7.929,17.642-1.06.943-2.264,2.011-3.63,3.251Z" transform="translate(22.583 1396.821)" fill="#2c88ff" stroke="#2c88ff" stroke-width="1" opacity="0.78"/>
    <path id="Path_393" data-name="Path 393" d="M422.116,696.321H388.724a.893.893,0,0,1,0-1.786h33.392a.893.893,0,0,1,0,1.786Z" transform="translate(23.211 1402.261)" fill="#2c88ff" stroke="#2c88ff" stroke-width="1" opacity="0.78"/>
    <path id="Path_394" data-name="Path 394" d="M427.2,696.321h-8.974a.893.893,0,0,1,0-1.786H427.2a.893.893,0,1,1,0,1.786Z" transform="translate(34.201 1402.261)" fill="#2c88ff" stroke="#2c88ff" stroke-width="1" opacity="0.78"/>
    <path id="Path_397" data-name="Path 397" d="M422.38,707.784H388.016a.893.893,0,0,1,0-1.786H422.38a.893.893,0,0,1,0,1.786Z" transform="translate(38.733 1412.846)" fill="#2c88ff" stroke="#2c88ff" stroke-width="1" opacity="0.78"/>
    <path id="Path_398" data-name="Path 398" d="M433.722,708.849H418.816a1.426,1.426,0,1,1,0-2.851h14.906a1.427,1.427,0,1,1,0,2.851Z" transform="translate(8.875 1380.846)" fill="#2c88ff" stroke="#2c88ff" stroke-width="1" opacity="0.78"/>
    <path id="Path_399" data-name="Path 399" d="M423.141,713.517H385.972a.893.893,0,0,1,0-1.786h37.169a.893.893,0,0,1,0,1.786Z" transform="translate(41.129 1397.618)" fill="#2c88ff" stroke="#2c88ff" stroke-width="1" opacity="0.78"/>
    <path id="Path_400" data-name="Path 400" d="M427.2,713.517h-8.974a.893.893,0,0,1,0-1.786H427.2a.893.893,0,1,1,0,1.786Z" transform="translate(32.987 1407.297)" fill="#2c88ff" stroke="#2c88ff" stroke-width="1" opacity="0.78"/>
    <path id="Path_401" data-name="Path 401" d="M423.141,719.249H385.972a.893.893,0,0,1,0-1.786h37.169a.893.893,0,0,1,0,1.786Z" transform="translate(25.343 1407.646)" fill="#2c88ff" stroke="#2c88ff" stroke-width="1" opacity="0.78"/>
    <path id="Path_403" data-name="Path 403" d="M423.141,724.971H385.972a.893.893,0,0,1,0-1.786h37.169a.893.893,0,0,1,0,1.786Z" transform="translate(25.972 1417.564)" fill="#2c88ff" stroke="#2c88ff" stroke-width="1" opacity="0.78"/>
    <path id="Path_404" data-name="Path 404" d="M427.2,724.971h-8.974a.893.893,0,0,1,0-1.786H427.2a.893.893,0,1,1,0,1.786Z" transform="translate(32.987 1411.564)" fill="#2c88ff" stroke="#2c88ff" stroke-width="1" opacity="0.78"/>
    <path id="Path_407" data-name="Path 407" d="M382.6,726.006a.9.9,0,0,1-.6-.232c-2-1.809-3.7-3.3-5.158-4.572-8.742-7.638-8.823-7.836-8.7-21.1.015-1.738.033-3.707.033-5.96a.891.891,0,0,1,.321-.685.906.906,0,0,1,.733-.194,16.907,16.907,0,0,0,12.876-2.553.893.893,0,0,1,1.072.062c2.939,2.49,7.1,3.3,12.752,2.486a.9.9,0,0,1,.711.21.887.887,0,0,1,.309.674c0,2.847.041,5.229.077,7.253.207,11.757.122,11.944-9.019,20.067-1.378,1.224-2.969,2.638-4.805,4.314A.893.893,0,0,1,382.6,726.006Zm-12.641-30.821c-.005,1.828-.021,3.462-.034,4.93-.115,12.573-.115,12.573,8.093,19.743,1.315,1.147,2.83,2.473,4.582,4.049,1.592-1.444,2.994-2.687,4.223-3.781,8.614-7.656,8.614-7.656,8.419-18.7-.031-1.787-.067-3.853-.076-6.27-5.35.605-9.531-.266-12.622-2.605A18.5,18.5,0,0,1,369.961,695.185Z" transform="translate(21.878 1400.78)" fill="#2c88ff" stroke="#2c88ff" stroke-width="1" opacity="0.78"/>
    <path id="Path_410" data-name="Path 410" d="M429.323,682.73H391.566a.893.893,0,0,1-.892-.893v-4.869a5.765,5.765,0,0,1,5.756-5.759h28.028a5.764,5.764,0,0,1,5.756,5.759v4.869A.893.893,0,0,1,429.323,682.73Zm-36.863-1.786H428.43v-3.976a3.977,3.977,0,0,0-3.972-3.974H396.43a3.976,3.976,0,0,0-3.971,3.974Z" transform="translate(24.27 1393.571)" fill="#2c88ff" stroke="#2c88ff" stroke-width="1" opacity="0.78"/>
    <path id="Path_411" data-name="Path 411" d="M416.212,674.91H399.08a.893.893,0,0,1-.894-.894v-7.055a.893.893,0,0,1,.894-.894h4.241a.893.893,0,0,1,.776.453,4.074,4.074,0,0,0,7.1,0,.893.893,0,0,1,.775-.453h4.241a.893.893,0,0,1,.894.894v7.055A.893.893,0,0,1,416.212,674.91Zm-16.24-1.786H415.32v-5.271h-2.856a5.856,5.856,0,0,1-9.635,0h-2.856Z" transform="translate(28.067 1395.656)" fill="#2c88ff" stroke="#2c88ff" stroke-width="1" opacity="0.78"/>
    <path id="Path_412" data-name="Path 412" d="M406.661,672.384a5.847,5.847,0,1,1,5.853-5.842A5.849,5.849,0,0,1,406.661,672.384Zm0-9.908a4.061,4.061,0,1,0,4.067,4.067A4.067,4.067,0,0,0,406.661,662.476Z" transform="translate(29.551 1397.166)" fill="#2c88ff" stroke="#2c88ff" stroke-width="1" opacity="0.78"/>
    <g id="Group_138" data-name="Group 138" transform="translate(389.053 2056)">
      <g id="Group_66" data-name="Group 66" transform="translate(0 0)">
        <g id="Group_43" data-name="Group 43" transform="translate(12.528 15.447)">
          <path id="Path_390-2" data-name="Path 390" d="M443.466,755.178H379.111a.8.8,0,0,1-.8-.8V725.166a.809.809,0,0,1,.262-.593c1.506-1.366,2.822-2.536,3.973-3.558,7.71-6.849,7.71-6.849,7.537-16.743-.029-1.6-.061-3.454-.069-5.623q-7.243.83-11.392-2.393a.8.8,0,0,1-.311-.633V674.051a.8.8,0,0,1,.8-.8h15.611a.8.8,0,0,1,.723,1.141,3.542,3.542,0,0,0-.331,1.506v3.562h32.226V675.9a3.531,3.531,0,0,0-.339-1.506.8.8,0,0,1,.723-1.141h15.743a.8.8,0,0,1,.8.8v80.328A.8.8,0,0,1,443.466,755.178Zm-63.556-1.6h62.756V674.852H428.828a5.1,5.1,0,0,1,.109,1.048v4.361a.8.8,0,0,1-.8.8H394.313a.8.8,0,0,1-.8-.8V675.9a5.153,5.153,0,0,1,.107-1.048H379.91v20.37c2.588,1.838,6.131,2.405,10.785,1.728a.824.824,0,0,1,.638.188.8.8,0,0,1,.277.6c0,2.554.037,4.69.07,6.505.184,10.53.108,10.7-8.074,17.964-1.08.96-2.306,2.047-3.7,3.31Z" transform="translate(-378.31 -673.252)" fill="#2c88ff" stroke="#2c88ff" stroke-width="1"/>
        </g>
        <g id="Group_46" data-name="Group 46" transform="translate(24.237 41.618)">
          <path id="Path_393-2" data-name="Path 393" d="M418.547,696.135H388.631a.8.8,0,0,1,0-1.6h29.915a.8.8,0,0,1,0,1.6Z" transform="translate(-387.832 -694.535)" fill="#2c88ff" stroke="#2c88ff" stroke-width="1"/>
        </g>
        <g id="Group_47" data-name="Group 47" transform="translate(60.514 41.618)">
          <path id="Path_394-2" data-name="Path 394" d="M426.173,696.135h-8.04a.8.8,0,0,1,0-1.6h8.04a.8.8,0,1,1,0,1.6Z" transform="translate(-417.334 -694.535)" fill="#2c88ff" stroke="#2c88ff" stroke-width="1"/>
        </g>
        <g id="Group_50" data-name="Group 50" transform="translate(23.366 55.714)">
          <path id="Path_397-2" data-name="Path 397" d="M418.709,707.6H387.923a.8.8,0,0,1,0-1.6h30.786a.8.8,0,0,1,0,1.6Z" transform="translate(-387.124 -705.998)" fill="#2c88ff" stroke="#2c88ff" stroke-width="1"/>
        </g>
        <g id="Group_51" data-name="Group 51" transform="translate(60.514 55.714)">
          <path id="Path_398-2" data-name="Path 398" d="M426.173,707.6h-8.04a.8.8,0,0,1,0-1.6h8.04a.8.8,0,1,1,0,1.6Z" transform="translate(-417.334 -705.998)" fill="#2c88ff" stroke="#2c88ff" stroke-width="1"/>
        </g>
        <g id="Group_54" data-name="Group 54" transform="translate(20.853 69.812)">
          <path id="Path_401-2" data-name="Path 401" d="M419.179,719.063h-33.3a.8.8,0,0,1,0-1.6h33.3a.8.8,0,0,1,0,1.6Z" transform="translate(-385.08 -717.463)" fill="#2c88ff" stroke="#2c88ff" stroke-width="1"/>
        </g>
        <g id="Group_55" data-name="Group 55" transform="translate(60.514 69.812)">
          <path id="Path_402" data-name="Path 402" d="M426.173,719.063h-8.04a.8.8,0,0,1,0-1.6h8.04a.8.8,0,1,1,0,1.6Z" transform="translate(-417.334 -717.463)" fill="#2c88ff" stroke="#2c88ff" stroke-width="1"/>
        </g>
        <g id="Group_58" data-name="Group 58" transform="translate(20.853 83.899)">
          <path id="Path_405" data-name="Path 405" d="M419.179,730.519h-33.3a.8.8,0,0,1,0-1.6h33.3a.8.8,0,0,1,0,1.6Z" transform="translate(-385.08 -728.919)" fill="#2c88ff" stroke="#2c88ff" stroke-width="1"/>
        </g>
        <g id="Group_59" data-name="Group 59" transform="translate(60.514 83.899)">
          <path id="Path_406" data-name="Path 406" d="M426.173,730.519h-8.04a.8.8,0,0,1,0-1.6h8.04a.8.8,0,1,1,0,1.6Z" transform="translate(-417.334 -728.919)" fill="#2c88ff" stroke="#2c88ff" stroke-width="1"/>
        </g>
        <g id="Group_60" data-name="Group 60" transform="translate(0 36.728)">
          <path id="Path_407-2" data-name="Path 407" d="M381.095,722.315a.8.8,0,0,1-.537-.208c-1.789-1.621-3.316-2.958-4.621-4.1-7.832-6.843-7.9-7.02-7.795-18.906.014-1.557.029-3.321.029-5.339a.8.8,0,0,1,.288-.614.811.811,0,0,1,.657-.173,15.148,15.148,0,0,0,11.536-2.287.8.8,0,0,1,.96.056c2.633,2.23,6.364,2.96,11.425,2.227a.8.8,0,0,1,.637.188.8.8,0,0,1,.277.6c0,2.55.037,4.685.069,6.5.186,10.533.109,10.7-8.08,17.978-1.235,1.1-2.66,2.363-4.305,3.865A.8.8,0,0,1,381.095,722.315ZM369.77,694.7c0,1.638-.018,3.1-.031,4.417-.1,11.264-.1,11.264,7.25,17.688,1.178,1.028,2.536,2.216,4.1,3.628,1.426-1.294,2.682-2.408,3.784-3.388,7.717-6.859,7.717-6.859,7.543-16.755-.028-1.6-.06-3.452-.068-5.617-4.793.542-8.539-.238-11.308-2.334A16.572,16.572,0,0,1,369.77,694.7Z" transform="translate(-368.122 -690.558)" fill="#2c88ff" stroke="#2c88ff" stroke-width="1"/>
        </g>
        <g id="Group_63" data-name="Group 63" transform="translate(27.732 12.935)">
          <path id="Path_410-2" data-name="Path 410" d="M425.3,681.531H391.473a.8.8,0,0,1-.8-.8v-4.362a5.165,5.165,0,0,1,5.157-5.16h25.11a5.164,5.164,0,0,1,5.157,5.16v4.362A.8.8,0,0,1,425.3,681.531Zm-33.025-1.6H424.5v-3.562a3.563,3.563,0,0,0-3.559-3.56h-25.11a3.562,3.562,0,0,0-3.557,3.56Z" transform="translate(-390.674 -671.209)" fill="#2c88ff" stroke="#2c88ff" stroke-width="1"/>
        </g>
        <g id="Group_64" data-name="Group 64" transform="translate(36.969 6.613)">
          <path id="Path_411-2" data-name="Path 411" d="M414.335,673.989H398.987a.8.8,0,0,1-.8-.8v-6.321a.8.8,0,0,1,.8-.8h3.8a.8.8,0,0,1,.695.406,3.65,3.65,0,0,0,6.36,0,.8.8,0,0,1,.695-.406h3.8a.8.8,0,0,1,.8.8v6.321A.8.8,0,0,1,414.335,673.989Zm-14.549-1.6h13.75v-4.722h-2.559a5.247,5.247,0,0,1-8.632,0h-2.559Z" transform="translate(-398.186 -666.068)" fill="#2c88ff" stroke="#2c88ff" stroke-width="1"/>
        </g>
        <g id="Group_65" data-name="Group 65" transform="translate(40.204)">
          <path id="Path_412-2" data-name="Path 412" d="M406.053,671.167a5.238,5.238,0,1,1,5.243-5.234A5.24,5.24,0,0,1,406.053,671.167Zm0-8.877a3.638,3.638,0,1,0,3.643,3.643A3.643,3.643,0,0,0,406.053,662.29Z" transform="translate(-400.817 -660.69)" fill="#2c88ff" stroke="#2c88ff" stroke-width="1"/>
        </g>
        <g id="Group_142" data-name="Group 142" transform="translate(37.627 31.588)">
          <path id="Path_394-3" data-name="Path 394" d="M432.127,696.833H418.672a1.162,1.162,0,1,1,0-2.3h13.456a1.163,1.163,0,1,1,0,2.3Z" transform="translate(-417.334 -694.535)" fill="#2c88ff" stroke="#2c88ff" stroke-width="1"/>
        </g>
      </g>
    </g>
  </g>
</svg>
