<svg xmlns="http://www.w3.org/2000/svg" width="133.934" height="149.579" viewBox="0 0 133.934 149.579">
  <g id="Group_216" data-name="Group 216" transform="translate(-538.067 -1942.056)">
    <path id="Path_654" data-name="Path 654" d="M-586.374,1082.983h-10.14v-49.394h0l0-.018c0-.052,0-.106-.008-.158s-.013-.1-.021-.145l0-.025c-.012-.056-.026-.111-.042-.164v0a1.8,1.8,0,0,0-.132-.316v0a1.632,1.632,0,0,0-.086-.143l0,0a1.658,1.658,0,0,0-.224-.272l-15.51-15.509a1.752,1.752,0,0,0-1.261-.533h-54.665a1.76,1.76,0,0,0-1.76,1.76v5.417a1.76,1.76,0,0,0,1.76,1.76,1.76,1.76,0,0,0,1.76-1.76v-3.656h51.144v13.768a1.761,1.761,0,0,0,1.76,1.762h13.771v59.482l-33.808,20.927-32.867-20.344v-64.9a1.761,1.761,0,0,0-1.76-1.76,1.761,1.761,0,0,0-1.762,1.76v52.465h-10.14a4.972,4.972,0,0,0-4.967,4.967v42.959a4.972,4.972,0,0,0,4.967,4.967h94a4.973,4.973,0,0,0,4.968-4.967V1087.95A4.974,4.974,0,0,0-586.374,1082.983Zm-25.67-60.674,9.518,9.518h-9.518Zm15.53,64.195h9.933l-9.933,6.149Zm-37.329,33.085a1.756,1.756,0,0,0,.927-.264l13.228-8.188,11.74,21.218h-50.137l11.319-20.456,12,7.426A1.748,1.748,0,0,0-633.844,1119.589Zm-36.388-33.085v6.73l-10.694-6.619a1.42,1.42,0,0,1,.553-.111Zm-11.588,44.405V1090.2l32.054,19.842-12.345,22.312h-18.263A1.449,1.449,0,0,1-681.819,1130.909Zm95.445,1.446h-17.55l-12.768-23.073,31.765-19.662v41.289A1.449,1.449,0,0,1-586.374,1132.356Z" transform="translate(1238.407 940.758)" fill="#2c88ff"/>
    <path id="Path_655" data-name="Path 655" d="M-654.875,1082.031h27.129a4.821,4.821,0,0,0,4.814-4.815v-22.06a4.816,4.816,0,0,0-4.63-4.8v-6.825a11.528,11.528,0,0,0-11.513-11.513h-4.471a11.524,11.524,0,0,0-11.512,11.513v1.631a1.464,1.464,0,0,0,1.464,1.466h6.7a1.466,1.466,0,0,0,1.465-1.466v-1.631a1.886,1.886,0,0,1,1.883-1.885h4.472a1.886,1.886,0,0,1,1.885,1.885v6.821h-1.173a1.465,1.465,0,0,0-1.373.952l-2.525,6.776a1.48,1.48,0,0,0,1.373,1.977h5.341l-5.023,12.9-.073-7.688a1.464,1.464,0,0,0-1.464-1.451h-6.313l4.285-11.5a1.481,1.481,0,0,0-1.373-1.978h-9.368a4.821,4.821,0,0,0-4.815,4.814v22.062a4.823,4.823,0,0,0,4.815,4.815Zm15.8-43.324h-4.472a4.819,4.819,0,0,0-4.815,4.814v.168h-3.768v-.168a8.591,8.591,0,0,1,8.582-8.582h4.472a8.591,8.591,0,0,1,8.582,8.587v6.821h-3.768v-6.821a4.821,4.821,0,0,0-4.814-4.82Zm7.042,20.408a1.479,1.479,0,0,0-1.365-2h-5.376l1.433-3.844h9.594a1.886,1.886,0,0,1,1.884,1.883v22.06a1.889,1.889,0,0,1-1.884,1.884h-12.074Zm-24.727-3.958a1.883,1.883,0,0,1,1.883-1.883h7.26l-4.285,11.5a1.482,1.482,0,0,0,1.374,1.978h6.971l.115,12.354h-11.432a1.889,1.889,0,0,1-1.884-1.884Zm0,0" transform="translate(1246.205 945.536)" fill="#2c88ff"/>
    <g id="Group_146" data-name="Group 146" transform="translate(553.067 1957)">
      <path id="Path_654-2" data-name="Path 654" d="M-586.374,1082.983h-10.14v-49.394h0l0-.018c0-.052,0-.106-.008-.158s-.013-.1-.021-.145l0-.025c-.012-.056-.026-.111-.042-.164v0a1.8,1.8,0,0,0-.132-.316v0a1.632,1.632,0,0,0-.086-.143l0,0a1.658,1.658,0,0,0-.224-.272l-15.51-15.509a1.752,1.752,0,0,0-1.261-.533h-54.665a1.76,1.76,0,0,0-1.76,1.76v5.417a1.76,1.76,0,0,0,1.76,1.76,1.76,1.76,0,0,0,1.76-1.76v-3.656h51.144v13.768a1.761,1.761,0,0,0,1.76,1.762h13.771v59.482l-33.808,20.927-32.867-20.344v-64.9a1.761,1.761,0,0,0-1.76-1.76,1.761,1.761,0,0,0-1.762,1.76v52.465h-10.14a4.972,4.972,0,0,0-4.967,4.967v42.959a4.972,4.972,0,0,0,4.967,4.967h94a4.973,4.973,0,0,0,4.968-4.967V1087.95A4.974,4.974,0,0,0-586.374,1082.983Zm-25.67-60.674,9.518,9.518h-9.518Zm15.53,64.195h9.933l-9.933,6.149Zm-37.329,33.085a1.756,1.756,0,0,0,.927-.264l13.228-8.188,11.74,21.218h-50.137l11.319-20.456,12,7.426A1.748,1.748,0,0,0-633.844,1119.589Zm-36.388-33.085v6.73l-10.694-6.619a1.42,1.42,0,0,1,.553-.111Zm-11.588,44.405V1090.2l32.054,19.842-12.345,22.312h-18.263A1.449,1.449,0,0,1-681.819,1130.909Zm95.445,1.446h-17.55l-12.768-23.073,31.765-19.662v41.289A1.449,1.449,0,0,1-586.374,1132.356Z" transform="translate(685.34 -1016.298)" fill="#2c88ff"/>
      <path id="Path_655-2" data-name="Path 655" d="M-654.875,1082.031h27.129a4.821,4.821,0,0,0,4.814-4.815v-22.06a4.816,4.816,0,0,0-4.63-4.8v-6.825a11.528,11.528,0,0,0-11.513-11.513h-4.471a11.524,11.524,0,0,0-11.512,11.513v1.631a1.464,1.464,0,0,0,1.464,1.466h6.7a1.466,1.466,0,0,0,1.465-1.466v-1.631a1.886,1.886,0,0,1,1.883-1.885h4.472a1.886,1.886,0,0,1,1.885,1.885v6.821h-1.173a1.465,1.465,0,0,0-1.373.952l-2.525,6.776a1.48,1.48,0,0,0,1.373,1.977h5.341l-5.023,12.9-.073-7.688a1.464,1.464,0,0,0-1.464-1.451h-6.313l4.285-11.5a1.481,1.481,0,0,0-1.373-1.978h-9.368a4.821,4.821,0,0,0-4.815,4.814v22.062a4.823,4.823,0,0,0,4.815,4.815Zm15.8-43.324h-4.472a4.819,4.819,0,0,0-4.815,4.814v.168h-3.768v-.168a8.591,8.591,0,0,1,8.582-8.582h4.472a8.591,8.591,0,0,1,8.582,8.587v6.821h-3.768v-6.821a4.821,4.821,0,0,0-4.814-4.82Zm7.042,20.408a1.479,1.479,0,0,0-1.365-2h-5.376l1.433-3.844h9.594a1.886,1.886,0,0,1,1.884,1.883v22.06a1.889,1.889,0,0,1-1.884,1.884h-12.074Zm-24.727-3.958a1.883,1.883,0,0,1,1.883-1.883h7.26l-4.285,11.5a1.482,1.482,0,0,0,1.374,1.978h6.971l.115,12.354h-11.432a1.889,1.889,0,0,1-1.884-1.884Zm0,0" transform="translate(693.138 -1011.52)" fill="#2c88ff"/>
    </g>
  </g>
</svg>
