<svg xmlns="http://www.w3.org/2000/svg" width="98.312" height="98.312" viewBox="0 0 98.312 98.312">
  <g id="Group_148" data-name="Group 148" transform="translate(0)">
    <path id="Path_656" data-name="Path 656" d="M-550.382,1025.106h-6.554a1.639,1.639,0,0,0-1.638,1.639v6.554a1.638,1.638,0,0,0,1.638,1.638h6.554a1.638,1.638,0,0,0,1.638-1.638v-6.554A1.639,1.639,0,0,0-550.382,1025.106Zm-1.638,6.555H-555.3v-3.277h3.277Z" transform="translate(589.706 -1010.36)" fill="#2c88ff"/>
    <path id="Path_657" data-name="Path 657" d="M-537.276,1025.106h-6.554a1.639,1.639,0,0,0-1.638,1.639v6.554a1.638,1.638,0,0,0,1.638,1.638h6.554a1.639,1.639,0,0,0,1.639-1.638v-6.554A1.639,1.639,0,0,0-537.276,1025.106Zm-1.638,6.555h-3.276v-3.277h3.276Z" transform="translate(589.708 -1010.36)" fill="#2c88ff"/>
    <path id="Path_658" data-name="Path 658" d="M-530.723,1025.106a1.639,1.639,0,0,0-1.639,1.639v6.554a1.639,1.639,0,0,0,1.639,1.638h6.554a1.638,1.638,0,0,0,1.638-1.638v-6.554a1.639,1.639,0,0,0-1.638-1.639Zm4.915,6.555h-3.276v-3.277h3.276Z" transform="translate(589.71 -1010.36)" fill="#2c88ff"/>
    <path id="Path_659" data-name="Path 659" d="M-550.382,1038.213h-6.554a1.638,1.638,0,0,0-1.638,1.638v6.554a1.639,1.639,0,0,0,1.638,1.639h6.554a1.639,1.639,0,0,0,1.638-1.639v-6.554A1.638,1.638,0,0,0-550.382,1038.213Zm-1.638,6.554H-555.3v-3.277h3.277Z" transform="translate(589.706 -1010.358)" fill="#2c88ff"/>
    <path id="Path_660" data-name="Path 660" d="M-537.276,1038.213h-6.554a1.638,1.638,0,0,0-1.638,1.638v6.554a1.639,1.639,0,0,0,1.638,1.639h6.554a1.639,1.639,0,0,0,1.639-1.639v-6.554A1.638,1.638,0,0,0-537.276,1038.213Zm-1.638,6.554h-3.276v-3.277h3.276Z" transform="translate(589.708 -1010.358)" fill="#2c88ff"/>
    <path id="Path_661" data-name="Path 661" d="M-524.169,1038.213h-6.554a1.638,1.638,0,0,0-1.639,1.638v6.554a1.639,1.639,0,0,0,1.639,1.639h6.554a1.639,1.639,0,0,0,1.638-1.639v-6.554A1.638,1.638,0,0,0-524.169,1038.213Zm-1.639,6.554h-3.276v-3.277h3.276Z" transform="translate(589.71 -1010.358)" fill="#2c88ff"/>
    <path id="Path_662" data-name="Path 662" d="M-550.382,1051.319h-6.554a1.638,1.638,0,0,0-1.638,1.638v6.555a1.639,1.639,0,0,0,1.638,1.638h6.554a1.639,1.639,0,0,0,1.638-1.638v-6.555A1.638,1.638,0,0,0-550.382,1051.319Zm-1.638,6.554H-555.3V1054.6h3.277Z" transform="translate(589.706 -1010.356)" fill="#2c88ff"/>
    <path id="Path_663" data-name="Path 663" d="M-537.276,1051.319h-6.554a1.638,1.638,0,0,0-1.638,1.638v6.555a1.639,1.639,0,0,0,1.638,1.638h6.554a1.639,1.639,0,0,0,1.639-1.638v-6.555A1.639,1.639,0,0,0-537.276,1051.319Zm-1.638,6.554h-3.276V1054.6h3.276Z" transform="translate(589.708 -1010.356)" fill="#2c88ff"/>
    <path id="Path_664" data-name="Path 664" d="M-524.169,1051.319h-6.554a1.639,1.639,0,0,0-1.639,1.638v6.555a1.639,1.639,0,0,0,1.639,1.638h6.554a1.639,1.639,0,0,0,1.638-1.638v-6.555A1.638,1.638,0,0,0-524.169,1051.319Zm-1.639,6.554h-3.276V1054.6h3.276Z" transform="translate(589.71 -1010.356)" fill="#2c88ff"/>
    <path id="Path_665" data-name="Path 665" d="M-550.382,1064.426h-6.554a1.638,1.638,0,0,0-1.638,1.638v6.554a1.638,1.638,0,0,0,1.638,1.638h6.554a1.638,1.638,0,0,0,1.638-1.638v-6.554A1.638,1.638,0,0,0-550.382,1064.426Zm-1.638,6.554H-555.3V1067.7h3.277Z" transform="translate(589.706 -1010.354)" fill="#2c88ff"/>
    <path id="Path_666" data-name="Path 666" d="M-537.276,1064.426h-6.554a1.638,1.638,0,0,0-1.638,1.638v6.554a1.638,1.638,0,0,0,1.638,1.638h6.554a1.639,1.639,0,0,0,1.639-1.638v-6.554A1.638,1.638,0,0,0-537.276,1064.426Zm-1.638,6.554h-3.276V1067.7h3.276Z" transform="translate(589.708 -1010.354)" fill="#2c88ff"/>
    <path id="Path_667" data-name="Path 667" d="M-524.169,1064.426h-6.554a1.639,1.639,0,0,0-1.639,1.638v6.554a1.639,1.639,0,0,0,1.639,1.638h6.554a1.638,1.638,0,0,0,1.638-1.638v-6.554A1.638,1.638,0,0,0-524.169,1064.426Zm-1.639,6.554h-3.276V1067.7h3.276Z" transform="translate(589.71 -1010.354)" fill="#2c88ff"/>
    <path id="Path_668" data-name="Path 668" d="M-550.382,1077.532h-6.554a1.638,1.638,0,0,0-1.638,1.638v6.554a1.639,1.639,0,0,0,1.638,1.639h6.554a1.639,1.639,0,0,0,1.638-1.639v-6.554A1.638,1.638,0,0,0-550.382,1077.532Zm-1.638,6.554H-555.3v-3.276h3.277Z" transform="translate(589.706 -1010.353)" fill="#2c88ff"/>
    <path id="Path_669" data-name="Path 669" d="M-537.276,1077.532h-6.554a1.638,1.638,0,0,0-1.638,1.638v6.554a1.639,1.639,0,0,0,1.638,1.639h6.554a1.639,1.639,0,0,0,1.639-1.639v-6.554A1.639,1.639,0,0,0-537.276,1077.532Zm-1.638,6.554h-3.276v-3.276h3.276Z" transform="translate(589.708 -1010.353)" fill="#2c88ff"/>
    <path id="Path_670" data-name="Path 670" d="M-524.169,1077.532h-6.554a1.639,1.639,0,0,0-1.639,1.638v6.554a1.639,1.639,0,0,0,1.639,1.639h6.554a1.639,1.639,0,0,0,1.638-1.639v-6.554A1.638,1.638,0,0,0-524.169,1077.532Zm-1.639,6.554h-3.276v-3.276h3.276Z" transform="translate(589.71 -1010.353)" fill="#2c88ff"/>
    <path id="Path_671" data-name="Path 671" d="M-502.86,1105.4h-11.47a1.639,1.639,0,0,1-1.639-1.638v-83.566a3.277,3.277,0,0,0-3.276-3.276h-1.639a1.639,1.639,0,0,1-1.638-1.638v-1.639a3.277,3.277,0,0,0-3.278-3.276h-29.493a3.277,3.277,0,0,0-3.276,3.276v1.639a1.639,1.639,0,0,1-1.639,1.638h-1.638a3.277,3.277,0,0,0-3.277,3.276v83.566a1.638,1.638,0,0,1-1.638,1.638h-21.3a1.637,1.637,0,0,0-1.638,1.638h0a1.638,1.638,0,0,0,1.638,1.639h95.034a1.639,1.639,0,0,0,1.639-1.639h0a1.638,1.638,0,0,0-1.639-1.638h-9.83Zm-50.8-91.758h26.217a1.639,1.639,0,0,1,1.638,1.639h0a1.638,1.638,0,0,1-1.638,1.638h-26.217a1.639,1.639,0,0,1-1.638-1.638h0A1.639,1.639,0,0,1-553.655,1013.638Zm9.831,91.758H-547.1a1.639,1.639,0,0,1-1.639-1.638V1097.2a1.64,1.64,0,0,1,1.639-1.639h3.276a1.64,1.64,0,0,1,1.639,1.639v6.555A1.639,1.639,0,0,1-543.824,1105.4Zm9.832,0h-3.277a1.639,1.639,0,0,1-1.638-1.638V1097.2a1.639,1.639,0,0,1,1.638-1.639h3.277a1.639,1.639,0,0,1,1.638,1.639v6.555A1.639,1.639,0,0,1-533.992,1105.4Zm13.108,0h-6.554a1.638,1.638,0,0,1-1.638-1.638v-8.193a3.277,3.277,0,0,0-3.277-3.276h-16.385a3.277,3.277,0,0,0-3.276,3.276v8.193a1.639,1.639,0,0,1-1.639,1.638h-6.554a1.638,1.638,0,0,1-1.638-1.638v-81.926a1.638,1.638,0,0,1,1.638-1.64h39.325a1.639,1.639,0,0,1,1.639,1.64v81.926A1.639,1.639,0,0,1-520.884,1105.4Z" transform="translate(589.702 -1010.362)" fill="#2c88ff"/>
  </g>
</svg>
