<svg xmlns="http://www.w3.org/2000/svg" width="23.1" height="23.1" viewBox="0 0 23.1 23.1">
  <g id="Group_226" data-name="Group 226" transform="translate(-17 -106.276)">
    <path id="Path_803" data-name="Path 803" d="M167.748,243.27h.006V234.8c0-4.144-.892-7.337-5.737-7.337a5.03,5.03,0,0,0-4.531,2.49h-.067v-2.1h-4.594v15.422h4.784v-7.637c0-2.011.381-3.955,2.871-3.955,2.453,0,2.49,2.295,2.49,4.084v7.509Zm0,0" transform="translate(-127.653 -113.894)" fill="#e4a000"/>
    <rect id="Rectangle_226" data-name="Rectangle 226" width="4.79" height="15.422" transform="translate(17.381 113.954)" fill="#e4a000"/>
    <path id="Path_804" data-name="Path 804" d="M19.774,106.276a2.787,2.787,0,1,0,2.774,2.774,2.775,2.775,0,0,0-2.774-2.774Zm0,0" transform="translate(0)" fill="#e4a000"/>
  </g>
</svg>
