<svg xmlns="http://www.w3.org/2000/svg" width="164.101" height="32.751" viewBox="0 0 164.101 32.751">
  <path id="Path_802" data-name="Path 802" d="M75.652,181.639H79.7c1.137-3.351,2.456-6.921,3.638-10.279H95.755l3.73,10.279h4L91.844,149.482H87.2L75.652,181.639Zm8.96-14.1c1.729-4.821,3.275-9.233,4.912-13.963,1.819,5.139,3.139,9.005,4.912,13.963Zm39.934-9.46h-3.638v19.793a16.207,16.207,0,0,1-5.549.811c-2.638-.045-5.276-1.592-5.276-4.321V158.079h-3.638V174.27c0,5.185,4.457,7.778,8.914,7.823a26.113,26.113,0,0,0,9.188-1.728V158.079Zm23.333-8.232H144.24v9.324a8.475,8.475,0,0,0-5.5-1.455c-4.549,0-9.1,2.775-9.1,7.868v8.824c0,5.231,4.5,7.687,9.005,7.778a29.078,29.078,0,0,0,9.233-1.638v-30.7ZM138.645,179c-2.683,0-5.367-1.729-5.321-4.5v-8.915c-.045-2.82,2.684-4.184,5.413-4.23a15.8,15.8,0,0,1,5.5,1.091v15.874a19.452,19.452,0,0,1-5.595.682Zm14.236-26.835a2.543,2.543,0,0,0,2.547,2.547,2.514,2.514,0,0,0,2.547-2.547,2.487,2.487,0,0,0-2.547-2.547,2.515,2.515,0,0,0-2.547,2.547Zm4.457,5.822v23.651H153.7V157.988Zm15.373,20.558c-3.775.728-6.049-1.819-6.049-4.5V161.763h4.821v-3.638h-4.821v-8.687H163.07v24.606c0,5.276,4.139,8.369,9.642,7.641v-3.138Zm11.826-17.374c2.547,0,5.412,1.274,5.412,4.23v8.869c0,2.956-2.865,4.275-5.412,4.275-2.638,0-5.5-1.319-5.5-4.275V165.4c0-2.956,2.865-4.23,5.5-4.23ZM175.4,165.4v8.869c0,5.276,4.594,7.823,9.142,7.868,4.5-.045,9.051-2.592,9.051-7.868V165.4c0-5.231-4.548-7.823-9.051-7.868-4.549.045-9.142,2.638-9.142,7.868Zm30.019-7.277c-3.73.728-6.731,3.411-6.731,7.634v15.881h3.638V165.758c0-2.176,1.774-3.54,3.639-4.041a6.923,6.923,0,0,1,3.593.091v-3.73a9.745,9.745,0,0,0-4.139.045Zm6.868-5.958a2.543,2.543,0,0,0,2.547,2.547,2.514,2.514,0,0,0,2.547-2.547,2.487,2.487,0,0,0-2.547-2.547,2.515,2.515,0,0,0-2.547,2.547Zm4.457,5.822v23.651H213.1V157.988Zm19.376,7.414v2.456a10.449,10.449,0,0,0-5.14-1.365c-4.776,0-9.324,1.956-9.369,7.6,0,5.048,3.684,8.05,8.414,8.1a29.582,29.582,0,0,0,9.733-1.547V165.4c0-5.094-4.412-7.6-8.914-7.6a11.536,11.536,0,0,0-8.369,3.684l2.5,2.411a7.148,7.148,0,0,1,5.594-2.547c2.82,0,5.549,1.319,5.549,4.048Zm0,13.144a26.524,26.524,0,0,1-6,.455,4.729,4.729,0,0,1-4.913-4.912c.045-3.366,2.684-4.094,5.64-4.094a16.782,16.782,0,0,1,5.276.955Z" transform="translate(-75.652 -149.437)" fill="#e9e9e9" fill-rule="evenodd"/>
</svg>
