<svg xmlns="http://www.w3.org/2000/svg" width="110.002" height="122.001" viewBox="0 0 110.002 122.001">
  <g id="Group_233" data-name="Group 233" transform="translate(-992.85 -3606.85)">
    <path id="Path_710" data-name="Path 710" d="M-609.448,1153.735h-7.776v-37.879h0v-.013c0-.04,0-.081-.006-.121s-.01-.074-.016-.111l0-.02c-.009-.042-.02-.084-.032-.125v0a1.39,1.39,0,0,0-.1-.242h0a1.118,1.118,0,0,0-.066-.11l0,0a1.289,1.289,0,0,0-.172-.209L-629.517,1103a1.347,1.347,0,0,0-.967-.408H-672.4a1.349,1.349,0,0,0-1.35,1.35v4.154a1.35,1.35,0,0,0,1.35,1.35,1.349,1.349,0,0,0,1.35-1.35v-2.8h39.22v10.558a1.35,1.35,0,0,0,1.35,1.35h10.56v45.616l-25.926,16.048-25.2-15.6V1113.5a1.351,1.351,0,0,0-1.35-1.35,1.351,1.351,0,0,0-1.351,1.35v40.234h-7.776a3.812,3.812,0,0,0-3.809,3.809v32.944a3.813,3.813,0,0,0,3.809,3.809h72.083a3.814,3.814,0,0,0,3.81-3.809v-32.944A3.813,3.813,0,0,0-609.448,1153.735Zm-19.685-46.529,7.3,7.3h-7.3Zm11.909,49.229h7.617l-7.617,4.714Zm-28.626,25.372a1.35,1.35,0,0,0,.711-.2l10.144-6.279,9,16.271H-664.44l8.68-15.687,9.2,5.695A1.344,1.344,0,0,0-645.85,1181.807Zm-27.9-25.372v5.161l-8.2-5.076a1.091,1.091,0,0,1,.424-.085Zm-8.886,34.053v-31.217l24.581,15.216-9.467,17.11h-14.005A1.111,1.111,0,0,1-682.64,1190.488Zm73.192,1.109h-13.458L-632.7,1173.9l24.359-15.078v31.662A1.111,1.111,0,0,1-609.448,1191.6Z" transform="translate(1693.34 2519.404)" fill="#2c88ff" stroke="#2c88ff" stroke-width="0.3"/>
    <path id="Path_711" data-name="Path 711" d="M-637.909,1132.115v-3.061a8.207,8.207,0,0,0-8.2-8.2,8.206,8.206,0,0,0-8.2,8.2v3.061a4.061,4.061,0,0,0-2.761,3.843v4.141a10.971,10.971,0,0,0,10.959,10.959,10.971,10.971,0,0,0,10.958-10.959v-4.141a4.063,4.063,0,0,0-2.761-3.843Zm-13.806-3.06a5.615,5.615,0,0,1,5.608-5.609,5.615,5.615,0,0,1,5.609,5.609v2.847h-11.217Zm13.978,11.044a8.381,8.381,0,0,1-8.37,8.371,8.381,8.381,0,0,1-8.37-8.371v-4.141a1.47,1.47,0,0,1,1.467-1.468H-639.2a1.469,1.469,0,0,1,1.466,1.468Zm0,0" transform="translate(1693.34 2519.404)" fill="#2c88ff"/>
    <path id="Path_712" data-name="Path 712" d="M-646.107,1137.424a2.678,2.678,0,0,0-2.675,2.675,2.676,2.676,0,0,0,1.381,2.34v.9a1.294,1.294,0,0,0,1.294,1.294,1.294,1.294,0,0,0,1.295-1.294v-.9a2.677,2.677,0,0,0,1.38-2.34,2.677,2.677,0,0,0-2.675-2.675Zm0,0" transform="translate(1693.34 2519.404)" fill="#2c88ff"/>
    <g id="Group_197" data-name="Group 197" transform="translate(1692.34 2519.404)">
      <path id="Path_710-2" data-name="Path 710" d="M-609.448,1153.735h-7.776v-37.879h0v-.013c0-.04,0-.081-.006-.121s-.01-.074-.016-.111l0-.02c-.009-.042-.02-.084-.032-.125v0a1.39,1.39,0,0,0-.1-.242h0a1.118,1.118,0,0,0-.066-.11l0,0a1.289,1.289,0,0,0-.172-.209L-629.517,1103a1.347,1.347,0,0,0-.967-.408H-672.4a1.349,1.349,0,0,0-1.35,1.35v4.154a1.35,1.35,0,0,0,1.35,1.35,1.349,1.349,0,0,0,1.35-1.35v-2.8h39.22v10.558a1.35,1.35,0,0,0,1.35,1.35h10.56v45.616l-25.926,16.048-25.2-15.6V1113.5a1.351,1.351,0,0,0-1.35-1.35,1.351,1.351,0,0,0-1.351,1.35v40.234h-7.776a3.812,3.812,0,0,0-3.809,3.809v32.944a3.813,3.813,0,0,0,3.809,3.809h72.083a3.814,3.814,0,0,0,3.81-3.809v-32.944A3.813,3.813,0,0,0-609.448,1153.735Zm-19.685-46.529,7.3,7.3h-7.3Zm11.909,49.229h7.617l-7.617,4.714Zm-28.626,25.372a1.35,1.35,0,0,0,.711-.2l10.144-6.279,9,16.271H-664.44l8.68-15.687,9.2,5.695A1.344,1.344,0,0,0-645.85,1181.807Zm-27.9-25.372v5.161l-8.2-5.076a1.091,1.091,0,0,1,.424-.085Zm-8.886,34.053v-31.217l24.581,15.216-9.467,17.11h-14.005A1.111,1.111,0,0,1-682.64,1190.488Zm73.192,1.109h-13.458L-632.7,1173.9l24.359-15.078v31.662A1.111,1.111,0,0,1-609.448,1191.6Z" fill="#2c88ff" stroke="#2c88ff" stroke-width="0.3"/>
      <path id="Path_711-2" data-name="Path 711" d="M-637.909,1132.115v-3.061a8.207,8.207,0,0,0-8.2-8.2,8.206,8.206,0,0,0-8.2,8.2v3.061a4.061,4.061,0,0,0-2.761,3.843v4.141a10.971,10.971,0,0,0,10.959,10.959,10.971,10.971,0,0,0,10.958-10.959v-4.141a4.063,4.063,0,0,0-2.761-3.843Zm-13.806-3.06a5.615,5.615,0,0,1,5.608-5.609,5.615,5.615,0,0,1,5.609,5.609v2.847h-11.217Zm13.978,11.044a8.381,8.381,0,0,1-8.37,8.371,8.381,8.381,0,0,1-8.37-8.371v-4.141a1.47,1.47,0,0,1,1.467-1.468H-639.2a1.469,1.469,0,0,1,1.466,1.468Zm0,0" fill="#2c88ff" stroke="#2c88ff" stroke-width="1"/>
      <path id="Path_712-2" data-name="Path 712" d="M-646.107,1137.424a2.678,2.678,0,0,0-2.675,2.675,2.676,2.676,0,0,0,1.381,2.34v.9a1.294,1.294,0,0,0,1.294,1.294,1.294,1.294,0,0,0,1.295-1.294v-.9a2.677,2.677,0,0,0,1.38-2.34,2.677,2.677,0,0,0-2.675-2.675Zm0,0" fill="#2c88ff" stroke="#2c88ff" stroke-width="1"/>
    </g>
  </g>
</svg>
