<svg xmlns="http://www.w3.org/2000/svg" width="80.78" height="103.397" viewBox="0 0 80.78 103.397">
  <g id="Group_193" data-name="Group 193" transform="translate(1163.579 -1006.653)">
    <path id="Path_646" data-name="Path 646" d="M-1113.176,1036.336h-10.1v-10.1a2.019,2.019,0,0,0-2.019-2.019h-12.117a2.019,2.019,0,0,0-2.021,2.019v10.1h-10.1a2.02,2.02,0,0,0-2.019,2.019v12.118a2.02,2.02,0,0,0,2.019,2.019h10.1v10.1a2.02,2.02,0,0,0,2.021,2.019h12.117a2.02,2.02,0,0,0,2.019-2.019v-10.1h10.1a2.02,2.02,0,0,0,2.019-2.019v-12.118a2.02,2.02,0,0,0-2.019-2.019Zm-2.019,12.117h-10.1a2.021,2.021,0,0,0-2.021,2.021v10.1h-8.077v-10.1a2.02,2.02,0,0,0-2.019-2.021h-10.1v-8.077h10.1a2.02,2.02,0,0,0,2.019-2.021v-10.1h8.077v10.1a2.021,2.021,0,0,0,2.021,2.021h10.1Zm0,0" transform="translate(8.163 11.918)" fill="#2c88ff"/>
    <path id="Path_647" data-name="Path 647" d="M-1092.014,1012.86a20.109,20.109,0,0,1-10.98,3.244,20.168,20.168,0,0,1-15.482-7.226,6.149,6.149,0,0,0-4.713-2.226,6.153,6.153,0,0,0-4.715,2.226,20.159,20.159,0,0,1-15.48,7.226,20.105,20.105,0,0,1-10.98-3.244,6.031,6.031,0,0,0-9.215,5.163v41.192a42.109,42.109,0,0,0,8.276,25.207,85.551,85.551,0,0,0,31.318,25.464,2.01,2.01,0,0,0,.8.165,2.015,2.015,0,0,0,.8-.165,85.575,85.575,0,0,0,31.318-25.46,42.127,42.127,0,0,0,8.276-25.21v-41.192a6.032,6.032,0,0,0-9.215-5.163ZM-1094.3,1082a83.742,83.742,0,0,1-28.888,23.809,83.533,83.533,0,0,1-28.886-23.81,38.063,38.063,0,0,1-7.463-22.78v-41.192a1.992,1.992,0,0,1,2.976-1.774,24.147,24.147,0,0,0,13.179,3.9,24.192,24.192,0,0,0,18.575-8.671,2.1,2.1,0,0,1,1.62-.782,2.094,2.094,0,0,1,1.62.782,24.189,24.189,0,0,0,18.575,8.671,24.161,24.161,0,0,0,13.181-3.9,1.992,1.992,0,0,1,2.976,1.774v41.192A38.063,38.063,0,0,1-1094.3,1082Zm0,0" transform="translate(0 0)" fill="#2c88ff"/>
  </g>
</svg>
